<svg id="Layer_3" data-name="Layer 3" xmlns="http://www.w3.org/2000/svg" viewBox="0 0 90 86.01"><defs><style>.cls-1{fill:#fff;stroke:#000;stroke-miterlimit:10;stroke-width:7px;}</style></defs><path class="cls-1" d="M14.5,33.72l23-17.22a22.32,22.32,0,0,1,27,.17l22.18,17A13.73,13.73,0,0,1,92,44.6V79.39A11.67,11.67,0,0,1,80.33,91.06H74.19A11.67,11.67,0,0,1,62.51,79.39V65.53a9.38,9.38,0,0,0-9.38-9.38H47.87a9.38,9.38,0,0,0-9.38,9.38V79.39A11.67,11.67,0,0,1,26.81,91.06H20.67A11.67,11.67,0,0,1,9,79.39V44.71A13.73,13.73,0,0,1,14.5,33.72Z" transform="translate(-5.5 -8.55)"/></svg>